# xmcd
#
# Track frame offsets:
#	150
#	10591
#	19678
#	32403
#	44665
#	57298
#	67339
#	78175
#	90619
#	101765
#	111857
#	123252
#	134556
#	145969
#	156960
#	166087
#	177010
#	186605
#	198120
#	206298
#	218344
#	229864
#	240675
#	250771
#	263277
#	274659
#	283744
#	294125
#	305908
#	319083
#
# Disc length: 4399 seconds
#
# Revision: 0
# Processed by: cddbd v1.5.2PL0 Copyright (c) Steve Scherf et al.
# Submitted via: FairStars CD Ripper 1.80
#
DISCID=a5112d1e
DTITLE=Various Artist - Soul For Dancers 2 cd2
DYEAR=2016
DGENRE=Soul
TTITLE0=Ike and Tina Turner - Worried and Hurtin' Inside
TTITLE1=Patience Valentine - If You Don't Come (You Better Call)
TTITLE2=Gino Parks - Fire
TTITLE3=Earl King - Trick Bag
TTITLE4=Timmy Shaw - A Letter From May Baby
TTITLE5=Marie Knight - I Thought I Told You Not To Tell Them
TTITLE6=The 5 Royales - (Something Moves Me) Within My Heart
TTITLE7=Ruth Brown - As Long As I'm Moving
TTITLE8=Mitty Collier - Don't Let Her Take My Baby
TTITLE9=Barbara George - Send For Me (If You Need Some Lovin')
TTITLE10=The Marvettes - Please Mr Postman
TTITLE11=Marie Knight - Come On Baby (Hold My Hand)
TTITLE12=Ann Cole - I've Got Nothing Working Now (But My Real Old Fashioned Love)
TTITLE13=Billy Ray - Playboy
TTITLE14=Betty O'Brien - She'll Be Gone
TTITLE15=Tiny Topsy - Aw! Shucks Baby
TTITLE16=Lula Reed - What Makes You So Cold
TTITLE17=Ann Cole - Are You Satisfied?
TTITLE18=Marty Lewis - Satisfied With My Lovin
TTITLE19=JJ Barnes - Won't You Let Me Know
TTITLE20=Yvonne Baker and The Sensations - Party Across The Hall
TTITLE21=Mitty Collier - I've Got Love
TTITLE22=Lloyd Price - Rainbow Joe
TTITLE23=James Brown and The Famous Flames - Come Over Here
TTITLE24=Etta James - Number One (My One and Only)
TTITLE25=The Simms Twins - Don't Fight It, Feel It
TTITLE26=Clyde McPhatter and Ruth Brown - I Gotta Have You
TTITLE27=Jessie Hill - Sweet Jelly Roll
TTITLE28=Sticks Herman - Give Me Your Love
TTITLE29=The Hi-Fi's - My Dear
EXTD=
EXTT0=
EXTT1=
EXTT2=
EXTT3=
EXTT4=
EXTT5=
EXTT6=
EXTT7=
EXTT8=
EXTT9=
EXTT10=
EXTT11=
EXTT12=
EXTT13=
EXTT14=
EXTT15=
EXTT16=
EXTT17=
EXTT18=
EXTT19=
EXTT20=
EXTT21=
EXTT22=
EXTT23=
EXTT24=
EXTT25=
EXTT26=
EXTT27=
EXTT28=
EXTT29=
PLAYORDER=
